<?xml version="1.0" encoding="utf-8"?>
<!-- Generator: Adobe Illustrator 22.0.1, SVG Export Plug-In . SVG Version: 6.00 Build 0)  -->
<svg version="1.1" id="papper_x5F_2" xmlns="http://www.w3.org/2000/svg" xmlns:xlink="http://www.w3.org/1999/xlink" x="0px"
	 y="0px" viewBox="0 0 192 270" style="enable-background:new 0 0 192 270;" xml:space="preserve">
<style type="text/css">
	.st0{
	fill:#DCE1E1;
	}
	.st1{display:none;}
</style>
<g>
	<path class="st0" d="M0,0v270h192V0H0z M188.1,62.9c-0.1,10.9-0.2,21.8-0.3,32.7c-0.1,12.8-0.3,25.5-0.4,38.3
		c-0.4,44-0.9,88-0.9,132c-20.1,0-40.2-0.4-60.3-0.6c-40.6-0.4-81.2-0.5-121.9-0.5h0.6c0-53.2,0.9-106.4,0.9-159.7
		c0-20.5-0.1-41-0.5-61.5c-0.1-2.5-0.1-5.1-0.2-7.6c-0.1-2.5-0.2-5.1-0.3-7.6c-0.1-2.5-0.2-5.1-0.3-7.6c-0.1-2.5-0.2-5.1-0.3-7.6
		C4.1,10.6,4.1,8,4.1,5.5l0-1.8c44.6,0,89.1,0.1,133.7-0.1c16.8-0.1,49.7-0.2,49.7-0.2C188.3,23.2,188.2,43.1,188.1,62.9z"/>
	<path class="st1" d="M137.8,3.6C93.2,3.8,48.6,3.7,4.1,3.7l0,1.8c0,2.5,0.1,5.1,0.1,7.6c0.1,2.5,0.2,5.1,0.3,7.6
		c0.1,2.5,0.2,5.1,0.3,7.6c0.1,2.5,0.2,5.1,0.3,7.6c0.1,2.5,0.2,5.1,0.2,7.6C5.7,64,5.8,84.5,5.8,105c0,53.2-0.9,106.4-0.9,159.7
		H4.3c40.6,0,81.2,0.1,121.9,0.5c20.1,0.2,40.2,0.6,60.3,0.6c0-44,0.5-88,0.9-132c0.1-12.8,0.2-25.5,0.4-38.3
		c0.1-10.9,0.2-21.8,0.3-32.7c0.2-19.8,0.2-39.7-0.6-59.5C187.5,3.4,154.5,3.5,137.8,3.6z"/>
</g>
</svg>
