<?xml version="1.0" encoding="utf-8"?>
<!-- Generator: Adobe Illustrator 22.0.1, SVG Export Plug-In . SVG Version: 6.00 Build 0)  -->
<svg version="1.1" xmlns="http://www.w3.org/2000/svg" xmlns:xlink="http://www.w3.org/1999/xlink" x="0px" y="0px"
	 viewBox="0 0 100 100" style="enable-background:new 0 0 100 100;" xml:space="preserve">
<style type="text/css">
	.st0{display:none;}
	.st1{display:inline;}
	.st2{fill:none;stroke:#000000;stroke-miterlimit:10;}
	.st3{fill:#020202;}
	.st4{display:inline;stroke:#000000;stroke-miterlimit:10;}
</style>
<g id="pin_x5F_6" class="st0">
	<g id="color_5_">
		<g class="st1">
			<path d="M66.8,45.6c-0.3-0.6-0.7-1.1-1.2-1.6c-0.6-0.6-1.4-1-2.2-1.3c-1-0.4-2-0.7-3.1-0.9c-0.3-0.1-0.6-0.1-0.8-0.3
				c-0.2-0.1-0.3-0.3-0.4-0.5c-1.2-1.8-3.6-2.5-5.7-2.7c-3.6-0.4-7.3,0.2-10.7,1.5c-1.8,0.7-3.5,1.7-4.4,3.4
				c-0.8,1.5-0.9,3.4-2.2,4.6c-0.4,0.3-0.8,0.6-1.2,0.9c-0.8,0.7-1.2,1.7-1.6,2.7c-0.5,1.7-0.8,3.6-0.7,5.4l0.3,0
				c-0.1,0.2-0.1,0.4-0.1,0.6c-0.1,0.6,0,1.2,0.2,1.8c0.9,3.4,4,5.8,7.3,6.8c3.3,1,6.9,0.8,10.4,0.4c2.9-0.3,5.9-0.8,8.6-1.9
				c1.5-0.6,2.9-1.3,4.3-2.1c0.6-0.3,1.3-0.7,1.8-1.2c0.4-0.4,0.7-0.8,1-1.3C69.1,55.8,69.3,50,66.8,45.6z"/>
			<g>
				<path d="M68.1,44.8c-2-3.2-5-3.1-7.8-4.8c-1.9-1.2-2.6-2.4-5.1-2.9c-2.4-0.5-5-0.4-7.3-0.1c-4.2,0.6-9,2.1-11,6.1
					c-0.5,0.9-0.6,2.1-1.2,3c-1.1,1.7-1.9,1.5-2.9,3.2c-1.3,2.2-1.4,5.1-1.5,7.6c0,0.8,0.7,1.6,1.5,1.5c0.1,0,0.2,0,0.3,0
					c-0.5-0.6-1-1.3-1.4-1.9c-0.9,4.2,2.1,8.1,5.6,10c5.2,2.9,11.9,2.1,17.5,1.1c5.2-0.9,11.3-3,13.8-8
					C70.8,54.8,70.3,49.4,68.1,44.8c-0.9-1.7-3.4-0.2-2.6,1.5c1.9,3.9,2.3,8.5-0.1,12.3c-2.1,3.3-6,4.7-9.7,5.6
					c-3.2,0.8-6.8,1.2-10.1,1.1c-4-0.1-12.3-2.3-11.1-8.1c0.2-0.9-0.4-2-1.4-1.9c-0.1,0-0.2,0-0.3,0c0.5,0.5,1,1,1.5,1.5
					c0.1-3.8,0.8-4.7,3-8c0.6-0.9,1-1.5,1.5-2.5c2-4.2,4.8-5.7,9.5-6.4c1.9-0.3,4.2-0.6,6.1,0c1.8,0.5,2.6,1.7,4.1,2.6
					c2.4,1.5,5.3,1,7,3.7C66.5,48,69.1,46.5,68.1,44.8z"/>
			</g>
		</g>
	</g>
	<g id="line_5_" class="st1">
		<path class="st2" d="M35.7,49.1c-0.4-1-0.5-2.2-0.5-3.3c0.4-5.8,6.2-8.8,11.3-9.8c1-0.2,2-0.3,3-0.4c1.6-0.1,3.2-0.1,4.7,0.2
			c1.5,0.3,3.1,1,4.2,2.1c2.2,2.1,2.7,5.5,1.7,8.4c-1,2.8-3.4,5-6.2,6.3s-5.8,1.6-8.8,1.7c-2.5,0-5.1-0.3-7-1.7
			C37,51.7,36.2,50.5,35.7,49.1z"/>
		<path class="st2" d="M59.5,39c0.3,0,0.6,0.1,0.9,0.2c2.4,0.5,4.7,1.5,6.5,3.2c3.4,3.2,4.2,8.6,2.6,12.9S64.2,63,60,65
			c-4.2,1.9-9,2.5-13.6,2.6c-3.8,0-7.8-0.4-10.8-2.7c-1.8-1.3-3.1-3.1-3.8-5.2c-0.6-1.6-0.8-3.3-0.7-5c0.3-3.6,1.2-6,3.6-8.3
			c0.2-0.2,0.4-0.3,0.7-0.5"/>
		<path class="st2" d="M58.9,48.4c0.5,1.3,0.6,1.9,1.1,3.2c-0.3,1.1-1.5,2.6-2.1,3.2c-1.1,1.1-2.9,1.7-5.1,2.5
			c-1.6,0.6-3.2,0.9-4.9,1.1c-1.4,0.2-2.3-0.1-3.7-0.4c-1-0.2-2.4-0.6-3.2-1.2c-0.4-1.2-1.1-3.2-1.2-3.3"/>
		<g>
			<polygon points="56.2,66.6 56.1,68.2 53.2,68.8 52.5,67.4 			"/>
		</g>
	</g>
</g>
<g id="pin_x5F_5" class="st0">
	<g id="color_3_">
		<g class="st1">
			<path class="st3" d="M66.8,46.7C66.8,46.7,66.8,46.6,66.8,46.7c-0.7-1.5-4-1.4-5.7-0.9c-1.6,0.5-3.4,0.4-5.1,0.8l-1.1-2.3
				c-1.1-2-2-4.1-2.8-6.2c0-0.1-0.1-0.2-0.1-0.2c0-0.2,0.1-0.3,0.2-0.4c0.8-1,1.7-1.8,2.4-2.8c0.7-1,1.2-2.3,0.9-3.5
				c-0.1-0.2-0.1-0.5-0.4-0.6C55,30.5,54.6,30,54.5,30c0,0,0,0,0,0c-0.2-0.1-1.5-1.3-1.6-1.3c0,0,0,0,0-0.1
				c-0.4-0.9-3.3,0.1-5.5,0.4c-0.8,0.1-1.6,0.3-2.3,0.6c-0.6,0.2-1.2,0.5-1.8,0.9c-1.9,1-3.8,2.1-5.7,3.2c-0.5,0.3-1,0.7-1.5,1.1
				c-0.5,0.5-1.3,1.1-1.6,1.8c-0.3,0.7-1.1,1.2-1,2c0.2,1.5,1.7,3.6,3.9,3.5c0,0,0,0,0.1,0c1.5,0,2.5-0.4,4-0.5c0.4,2,1.8,4.8,2.6,7
				c-0.2,0.1-0.4,0.2-0.5,0.3c-0.2,0.3-0.2,0.8-0.1,1.2c0,0.1,0,0.2,0,0.3c-2.2,1.1-5.3,3.3-6.4,5.2c-1,1.9-0.6,6.4-0.6,6.1
				c2.8,3.1,7,3.1,11,2c7-2,8-2,14-6c0.3-0.2,4.8-3.6,5-4c0.7-0.5,1-2,1-3C67.5,48.9,67.7,48.6,66.8,46.7z"/>
			<g>
				<path d="M68.1,45.9c-1.8-3.9-9.8-1.2-12.5-0.8c0.6,0.2,1.1,0.5,1.7,0.7c-0.5-1-1-2-1.5-3.1c-0.5-0.9-2.6-4.1-2.3-5.1
					c0,0,1.2-0.8,1.4-1c1.2-1.9,3-3.8,1.9-6.2c-0.3-0.7-0.9-1.1-1.4-1.6c-0.4-0.4-2.1-1.3-1.1-0.6c-2-1.5-2.5-1.5-5.3-1
					c-5.5,1-14.2,4-16.5,9.7c-0.8,2.1-0.1,4.1,1.7,5.5c2.3,1.8,5.1,1,7.7,0.5c-0.6-0.3-1.2-0.7-1.8-1c0.7,2.4,1.7,4.7,2.6,7
					c0.2-0.6,0.5-1.1,0.7-1.7c-0.7,0.5-0.8,0.9-1.3,1.5C41.8,49,42.2,49.7,42,50c0.4-0.4-1.6,0.4-1.7,0.4c-2.7,1.2-4.8,4.1-5.2,7
					c-0.3,2.2-0.5,4.1,0.9,5.8c2.1,2.4,6,2.8,8.9,2.5c8.4-0.9,27.8-7.8,23.4-19.3c-0.7-1.8-3.6-1-2.9,0.8
					c2.5,6.5-6.7,11.2-11.8,13.1c-3.9,1.4-8.9,3.2-13,2.2c-2.5-0.6-2.8-1.3-2.6-3.6c0.4-3.7,3.2-5.5,6.3-7.2
					c0.5-0.3,0.7-0.8,0.7-1.3c0.1-0.2,0-0.3-0.1-0.5c0.5-0.3,0.9-1.1,0.7-1.7c-0.9-2.3-1.9-4.6-2.6-7c-0.2-0.8-1-1.2-1.8-1
					c-2.4,0.4-3.2,1.1-4.5-1.2c-1.2-2.3-0.1-2.7,1.6-4c1.9-1.4,4.4-2.8,6.6-3.7c1.2-0.5,2.3-0.7,3.6-0.9c0.3-0.1,3.4-1.2,3-1.3
					c0.1,0,1.9,1.9,2,2c1.8,2.8-2.8,4.4-2.8,7c0,2.9,2.9,6.7,4.2,9.3c0.3,0.6,1.1,0.8,1.7,0.7c1.1-0.2,8.5-1.9,9.1-0.6
					C66.3,49.2,68.9,47.7,68.1,45.9z"/>
			</g>
		</g>
	</g>
	<g id="line_3_" class="st1">
		<path class="st2" d="M42.2,50.2c-3.6,1.4-7.4,5-7.4,9.1c0,1.8,0.9,3.6,2.4,4.5c3.8,2.1,8.5,1.4,12.5,0.6c1.3-0.3,2.7-0.6,3.9-1
			c2.5-0.8,4.9-2,7.1-3.4c1.6-1,3.1-2,4.5-3.2c1.3-1.1,2.7-2.3,3.4-3.9c0.4-0.9,0.5-1.9,0.5-2.9c0-1.7-0.5-3.7-2-4.7
			c-1.5-1.1-3.5-1.5-5.3-1.5c-1.8,0-3.5,0.6-5.2,1"/>
		<path class="st2" d="M52.9,37.5c0.2,0.4,0.6,0.9,0.8,1.4c1.4,2.5,2.6,5.6,3.9,8.2c-0.3,0.9-0.8,1.2-1.6,2c-1.8,1.6-4,2.6-6.3,3.2
			c-2.2,0.6-4.7,0.7-6.5-0.7c-0.9-2.3-1.6-4.6-2.3-7c-0.1-0.5-0.2-0.9-0.4-1.4"/>
		<path class="st2" d="M33.6,41.9c-0.8-0.8-1.4-1.9-1.6-3.1c-0.2-1.1,0.3-2.2,0.9-3.2c1.3-2,3.3-3.7,5.4-4.9c3.5-2,7.6-3.8,11.7-3.7
			c2,0,4.2,0.5,5.6,2c0.3,0.4,0.6,0.8,0.8,1.2c0.9,2-0.4,4.2-1.6,5.7c-0.8,1.1-1.8,2-2.9,2.8c-1.3,0.9-2.7,1.6-4.2,2.1
			c-2.5,1-5.2,1.9-7.9,2.3c-1.5,0.2-3.2,0.3-4.7-0.3C34.6,42.7,34.1,42.3,33.6,41.9z"/>
		<g>
			<polygon points="57.4,62.1 59.1,67.4 56.7,68.5 54,63.5 			"/>
		</g>
	</g>
</g>
<g id="pin_x5F_4" class="st0">
	<g id="color_2_">
		<g class="st1">
			<path d="M43.4,55.4c-1.5,0.5-2.3,2-2.9,3.4c-0.4,1-0.8,2.1-0.8,3.2c0,1.1,0.3,2.2,1,3c0.8,0.9,2.1,1.2,3.3,1.4
				c3.3,0.4,6.8-0.2,9.8-1.7c1-0.5,2-1.1,2.9-1.8c2-1.3,3.9-2.6,5.7-4.1c1.4-1.2,2.6-2.6,3.8-3.9c1.3-1.4,2.6-3.1,2.5-5
				c-0.1-1.7-1.6-3.1-3.2-3.7c-1.6-0.6-3.4-0.5-5.1-0.2c-0.6,0.1-1.3,0.2-1.9,0.4c-0.7,0.2-1.3,0.6-1.9,0.9
				c-1.1,0.6-2.2,1.3-3.3,1.9c-2.9,1.6-5.8,3.3-8.1,5.6c0,0-7.2-12.7-8.4-15.3l7.1,15.7L43.4,55.4z"/>
			<g>
				<path d="M42.6,54.1c-4.2,2.4-6.7,10.3-1.6,13c7.7,4,17.7-2.9,23-7.9c3.9-3.7,10.1-11.5,1.7-14.4c-7.4-2.6-16.7,4.5-21.8,9
					c0.8,0.1,1.6,0.2,2.4,0.3C43.6,49,40.6,44,38,38.8c-0.9-1.7-3.4-0.2-2.6,1.5c2.4,5.2,4.8,10.5,7.1,15.7c0.3-0.7,0.6-1.5,0.9-2.2
					c-0.1,0-0.3,0.1-0.4,0.1c-1.8,0.6-1,3.5,0.8,2.9c0.1,0,0.3-0.1,0.4-0.1c1-0.3,1.3-1.3,0.9-2.2C42.7,49.2,40.4,44,38,38.8
					c-0.9,0.5-1.7,1-2.6,1.5c2.6,5.2,5.6,10.3,8.4,15.3c0.5,0.9,1.6,0.9,2.4,0.3c3.2-2.8,7.2-5.4,11.1-7.2c1.5-0.7,3-1.5,4.8-1.4
					c9.3,0.9,3.3,6.4,1.2,8.5c-2.8,2.9-6.5,5.7-10.2,7.5c-2.3,1.1-4.8,1.7-7.4,1.6c-4.9-0.2-5.5-6-1.5-8.3
					C45.8,55.7,44.3,53.1,42.6,54.1z"/>
			</g>
		</g>
		<g class="st1">
			<path d="M38.9,38.9c0.4,2.1,1.2,4.1,2.5,5.8c0.8,1,1.7,2,2.4,3.1c0.9,1.3,1.6,2.9,2.2,4.4c0.6-0.4,10.3-6,10.3-6
				c-0.6-1.7-1.4-3.3-2.3-4.8c-0.6-1-1.2-1.9-1.8-2.8c-1.4-2.1-2.8-4.1-4.1-6.2c-1.5,1.1-2.9,2.5-4.3,3.8
				C42.4,37.3,40.8,38.5,38.9,38.9z"/>
			<g>
				<path d="M37.5,39.3c1.2,5.3,5.2,8.7,7.3,13.6c0.3,0.7,1.4,0.9,2.1,0.5c3.3-2.2,6.9-4,10.3-6c0.5-0.3,0.9-1.1,0.7-1.7
					c-2.1-5.2-5.3-9.6-8.4-14.2c-0.6-0.9-1.6-0.9-2.4-0.3c-2.8,2.2-5.1,5.1-8.5,6.2c-1.8,0.6-1.1,3.5,0.8,2.9c4.1-1.3,6.6-4.4,9.9-7
					c-0.8-0.1-1.6-0.2-2.4-0.3c2.9,4.3,6.2,8.6,8.1,13.5c0.2-0.6,0.5-1.1,0.7-1.7c-3.4,2-7,3.8-10.3,6c0.7,0.2,1.4,0.4,2.1,0.5
					c-1.9-4.6-5.9-8-7-12.9C39.9,36.6,37,37.4,37.5,39.3z"/>
			</g>
		</g>
		<g class="st1">
			<path d="M44.9,22.8c-2.2-0.1-4.4,0.4-6.5,1.2c-0.5,0.2-1,0.4-1.5,0.7c-0.6,0.4-1.2,0.9-1.7,1.3c-1.4,1.3-2.9,2.5-3.9,4.2
				c-0.9,1.6-1.3,3.5-1.1,5.3c0,0.4,0.1,0.7,0.3,1.1c0.4,0.7,1.2,1,2,1c0.8,0,1.5-0.2,2.3-0.5c0.3-0.1,0.5-0.2,0.8-0.2
				c0.4,0.9,0,0,0,0c1.5-0.5,3.1-1,4.6-1.5c0.7-0.2,1.4-0.5,2.1-0.8c0.7-0.4,1.3-0.8,1.9-1.3c0.9-0.7,1.7-1.4,2.3-2.4
				c0.8-1.2,1-2.6,1.3-4c0.1-0.4,0.3-2.1,0.1-2.5c-0.1-0.2-0.2-0.4-0.4-0.6C47.5,23.9,45.1,22.9,44.9,22.8z"/>
			<g>
				<path d="M44.9,21.3c-6.2,0-12.9,3.3-15.5,9.3c-0.8,2-1.4,5.2,0,7c1.6,2.1,4.3,1.4,6.5,0.7c-0.6-0.2-1.1-0.5-1.7-0.7
					c0.1,0.1,0.1,0.3,0.2,0.4c0.8,1.8,3.3,0.2,2.6-1.5c-0.1-0.1-0.1-0.3-0.2-0.4c-0.3,0.7-0.6,1.5-0.9,2.2
					c5.5-1.8,11.6-3.5,13.1-9.9c0.9-4,0.2-5.8-3.7-7c-1.9-0.6-2.6,2.3-0.8,2.9c0.5,0.2,1.9,0.4,2.2,0.9c0,0-0.1-0.2-0.3,0.6
					c-0.2,0.8-0.2,1.6-0.4,2.4c-1.5,4.9-6.5,5.9-10.9,7.3c-1,0.3-1.3,1.3-0.9,2.2c0.1,0.1,0.1,0.3,0.2,0.4c0.9-0.5,1.7-1,2.6-1.5
					c-0.1-0.1-0.1-0.3-0.2-0.4c-0.2-0.6-1.1-0.9-1.7-0.7c-3.9,1.3-3.9-2.2-2.6-4.5c0.7-1.2,1.8-2.2,2.8-3.1c2.7-2.4,5.8-3.6,9.5-3.5
					C46.8,24.4,46.8,21.4,44.9,21.3z"/>
			</g>
		</g>
	</g>
	<g id="line_2_" class="st1">
		<path d="M69.9,52.6c-2.2,5.7-7.7,9.7-12.2,12.2c-3.3,1.8-6.2,3.2-9.4,3.9c-2,0.4-3.8,0.4-5.3,0c-1.9-0.5-3.5-1.6-4.4-3.1
			c-1-1.7-1.3-3.9-0.6-6c0.5-1.7,1.5-3.4,3.1-5.1c0.2-0.2,0.3-0.3,0.5-0.4l0.2-0.1l0.6,0.8c0,0-0.4,0.3-0.5,0.4
			c-1.5,1.6-2.4,3.2-2.9,4.7c-0.5,1.9-0.3,3.8,0.5,5.2c0.8,1.2,2.2,2.2,3.8,2.6c1.4,0.4,3.1,0.3,4.9,0c3.3-0.7,6.4-2.3,9.1-3.8
			c4.8-2.6,10.9-7,12.3-13.5c0.4-1.6-0.8-3.4-2.1-4.5c-0.6-0.4-1.3-0.7-2.4-0.9c-1.8-0.3-3.8-0.3-5.6,0.1c-0.2,0-0.4,0.1-0.7,0.2
			c-0.1,0-0.2,0.1-0.3,0.1l-0.4,0.1c0,0-0.2-0.9-0.2-0.9l0.2-0.1c0.1,0,0.2-0.1,0.4-0.1c0.3-0.1,0.6-0.2,0.8-0.2c2-0.4,4-0.4,6-0.1
			c0.8,0.1,1.9,0.4,2.8,1.1c1.5,1.2,2.9,3.4,2.5,5.5C70.4,51.2,70.2,51.9,69.9,52.6z M58.2,44.4L58.2,44.4
			C58.2,44.4,58.2,44.4,58.2,44.4z"/>
		<path d="M58.4,50.2c-0.7,1.8-2,3.6-3.8,4.9c-1.9,1.4-3.9,2.3-5.9,2.5c-2.3,0.2-4.6-0.5-6.1-1.9c-0.2-0.2-0.3-0.3-0.4-0.5l-0.1-0.1
			c-0.1-0.1-0.2-0.3-0.2-0.5c0-0.1-0.1-0.2-0.1-0.3l0.9-0.5c0.1,0.2,0.2,0.3,0.2,0.5c0,0.1,0.1,0.1,0.1,0.2l0.1,0.2
			c0,0,0.1,0.1,0.2,0.2c1.4,1.3,3.4,1.9,5.4,1.7c1.8-0.2,3.7-1,5.4-2.3c2.2-1.7,3.6-4,3.9-6.2c0-0.4,0.1-0.8,0-1.2
			c0-0.4-0.1-0.7-0.3-1.1l0.9-0.4c0.2,0.4,0.3,0.9,0.4,1.4c0,0.4,0,0.9,0,1.3C58.9,48.9,58.7,49.6,58.4,50.2z"/>
		<path d="M42.8,54l-0.9,0.4c-2.1-4.7-4.4-9.4-6.7-14l0.9-0.5C38.4,44.5,42.8,54,42.8,54z"/>
		<path d="M58.7,45.7l-0.8,0.6c-0.2-0.3-0.6-1.1-0.6-1.2c-2.6-5-5.8-9.6-9.5-13.9l0.8-0.7c3.7,4.3,7,9,9.6,14.1
			c0.1,0.1,0.1,0.3,0.2,0.4C58.5,45.3,58.5,45.5,58.7,45.7z"/>
		<path d="M49.4,28.8c-1,2.7-2.8,5.1-5.2,6.7c-0.8,0.6-1.7,1.1-2.8,1.6c-2,1-4.1,1.8-6.3,2.4c-1.9,0.5-4,0-5.4-1.4
			c-2.7-2.6-1.7-6.9,0.6-9.8c1.8-2.1,6.5-7.1,12.9-7.3l0,0c0.6,0,1.2,0,1.8,0.1c2.1,0.3,4.7,1.5,5,4.1c0.1,0.8-0.1,1.6-0.2,2.2
			C49.7,27.9,49.6,28.3,49.4,28.8z M29.6,31.6c-0.8,2.1-0.7,4.3,0.8,5.8c1.1,1.1,2.9,1.5,4.4,1.1C37,38,39,37.2,41,36.2
			c1.1-0.5,1.9-1,2.7-1.5c2.5-1.8,4.4-4.5,5.3-7.5c0.1-0.5,0.3-1.2,0.2-1.8c-0.2-2.1-2.4-3-4.2-3.3c-0.6-0.1-1.1-0.1-1.7-0.1l0,0
			c-6,0.2-10.5,4.9-12.1,7C30.5,29.8,30,30.7,29.6,31.6z"/>
		<g>
			<polygon points="59.9,63.1 63.2,71.2 61.3,72.2 56.3,65.1 			"/>
		</g>
	</g>
</g>
<g id="pin_x5F_3" class="st0">
	<g id="color_4_">
		<g class="st1">
			<path d="M68.6,54.4c0,0-0.4-1.8-0.4-1.8c-0.1-0.6-0.2-1.3-0.4-1.9c-0.3-0.8-0.9-1.5-1.5-2.1c-0.7-0.7-0.7-1.1-2-1.4
				c-0.1,0-0.1,0-0.2,0c-0.1,0-0.1,0-0.1-0.1c-0.3-0.2-0.6-0.5-0.9-0.6c-0.1,0-0.1-0.4-0.1-0.4c-0.2-0.1,0.2-0.5,0.2-0.7
				c-0.4-2.2-2.3-3.7-4.2-4.8c-3.2-1.8-6.8-2.8-10.4-2.9c-1.9-0.1-3.9,0.2-5.4,1.3c-1.4,1-2.2,2.8-3.8,3.3c-0.5,0.2-1,0.2-1.4,0.4
				c-1,0.3-1.8,1.1-2.5,1.9c-1.2,1.4-2.1,3-2.8,4.6l0.3,0.1c-0.1,0.2-0.3,0.3-0.4,0.5c-0.3,0.5-0.5,1.1-0.6,1.7
				c-0.5,3.5,1.3,6.9,4,9.2c2.7,2.3,6,3.5,9.4,4.5c2.8,0.9,5.7,1.6,8.6,1.7c1.6,0.1,3.2-0.1,4.7-0.2c0.7-0.1,1.4-0.1,2.1-0.4
				c0.5-0.2,1-0.5,1.5-0.8C66.3,62.9,69.1,59.4,68.6,54.4z"/>
			<g>
				<path d="M70,54.1c-0.4-1.9-0.5-3.6-1.6-5.2c-1-1.5-2.9-1.9-3.8-3c-0.2-0.3-0.3-1.7-0.7-2.4c-1.1-2.3-3.5-3.8-5.7-4.8
					c-4.1-2-10.3-3.6-14.7-1.5c-1.3,0.6-1.9,1.5-2.9,2.3c-1.5,1.2-3.5,1.7-5,2.9c-2.1,1.7-3.4,3.9-4.5,6.3c-0.4,0.9-0.1,1.9,0.9,2.2
					c0.1,0,0.2,0.1,0.3,0.1c-0.3-0.7-0.6-1.5-0.9-2.2c-2.4,3.3-1,8.1,1.2,11.1c3.5,4.7,10,6.8,15.5,8.1c5.3,1.2,11.4,1.7,15.9-1.7
					c3.9-2.9,6.1-6.8,6-11.7c-0.1-1.9-3.1-1.9-3,0C67.4,64.6,57,66.7,49,65c-5.1-1.1-20.8-6.7-14.9-14.8c0.6-0.8-0.1-1.9-0.9-2.2
					c-0.1,0-0.2-0.1-0.3-0.1c0.3,0.7,0.6,1.5,0.9,2.2c1.4-3.1,3.1-4.5,6-6.3c1.3-0.8,2.2-1.9,3.4-2.8c4.9-3.3,15.8-1.6,18.3,4.4
					c0.7,1.6,0.1,1.9,1.9,3.1c2.4,1.6,3.2,3.4,3.8,6.3C67.5,56.7,70.4,55.9,70,54.1z"/>
			</g>
		</g>
	</g>
	<g id="line_4_" class="st1">
		<path class="st2" d="M38.6,42.7c0.1-1.1,0.5-2.2,1.1-3.1c3-5,9.5-5.1,14.5-3.6c1,0.3,1.9,0.6,2.9,1c1.5,0.6,2.9,1.3,4.1,2.3
			c1.2,1,2.3,2.2,2.8,3.7c1,2.8-0.1,6.2-2.3,8.2c-2.2,2.1-5.3,3-8.3,2.8c-3-0.1-5.9-1.1-8.6-2.5c-2.2-1.1-4.4-2.5-5.5-4.7
			C38.7,45.6,38.4,44.1,38.6,42.7z"/>
		<path class="st2" d="M64.4,44.4c0.3,0.2,0.5,0.4,0.8,0.6c1.9,1.5,3.5,3.5,4.4,5.7c1.6,4.4-0.1,9.5-3.5,12.7s-8.2,4.6-12.9,4.4
			S44,66,39.9,64c-3.4-1.7-6.8-3.9-8.5-7.3c-1-2-1.3-4.2-1.1-6.4c0.2-1.7,0.8-3.3,1.6-4.8c1.9-3.1,3.8-4.8,6.9-5.8
			c0.3-0.1,0.6-0.1,0.8-0.1"/>
		<path class="st2" d="M59.6,52.5c-0.1,1.3-0.3,2-0.5,3.3c-0.7,0.8-2.5,1.6-3.3,1.9c-1.4,0.5-3.3,0.2-5.7-0.1
			c-1.7-0.2-3.3-0.7-4.9-1.2c-1.3-0.4-2-1.2-3.2-2c-0.8-0.6-1.9-1.6-2.3-2.5c0.2-1.2,0.4-3.4,0.4-3.5"/>
		<g>
			<polygon points="48.9,67.3 47.8,68.9 44.3,67.9 44.2,66 			"/>
		</g>
	</g>
</g>
<g id="pin_x5F_2" class="st0">
	<g id="color_1_">
		<path class="st4" d="M44.1,44.7c-2.3-0.7-6.7-1.2-8.9-0.3c-2,0.8-4.8,3.9-4.7,3.6c0.1,4.1,3.5,7.4,7,9.6c6.3,3.9,13.6,6.4,21,6
			c1.5-0.1,2.7-1.4,4-2s1.3-2.2,1.7-3.6c0.5-1.7,0.8-2.2-0.3-3.6c-1.2-1.4-2.1-2.8-3.6-3.7c-4.9-2.7-9.9-5-15.1-7
			c-0.2-0.1-0.5-0.2-0.8-0.1c-0.4,0.1-0.6,0.5-0.8,0.8c-0.7,1-2,1.4-3.2,1.4c-1.2,0.1-2.4-0.2-3.6-0.3c-0.9-0.1-1.8-0.1-2.5,0.5
			c-0.8,0.6-0.9,1.8-0.8,2.8c0.1,1,0.3,1.9,0.8,2.8c0.8,1.5,2.2,2.4,3.6,3.3c6.6,4,14.2,6.4,21.8,7.8c0.9,0.2,1.8-0.8,2.7-1.1
			C64.4,60.8,65,59,64,57c-1-1.9-3-3.1-4.9-4.2c-3-1.7-5.9-3.4-8.9-5.1c-1.7-1-3.5-2-5.4-2.5c-2.5-0.6-5-0.2-7.5,0.2
			c-0.5,0.1-1,0.2-1.3,0.5c-0.3,0.3-0.4,0.7-0.5,1.1c-0.2,1.6,0.5,3.2,1.7,4.4c1.1,1.2,2.6,2,4,2.7c4.1,2.1,8.4,3.9,12.8,5.4
			c2,0.7,4.2,1.2,6.2,0.4c0.4-0.2,0.8-0.4,1-0.8c0.6-1-0.3-2.3-1.2-3c-3.3-2.8-7.2-4.7-11-6.7c-2.8-1.4-5.8-2.8-8.9-2.5
			c-0.8,0.1-1.7,0.4-2.1,1.1c-0.5,1,0.3,2.2,1.2,3c1.4,1.1,3.1,1.8,4.8,2.5c3.2,1.3,6.5,2.5,9.7,3.8c1.4,0.6,3,1.1,4.5,1
			c0.2-0.8-0.6-1.3-1.3-1.7c-5.7-3-11.5-5.7-17.4-8.1"/>
		<g class="st1">
			<g>
				<path d="M66.9,36.9c0.1-2.6-3.4-5.5-5.2-6.8c-3.4-2.5-8.1-3.3-12.2-3.7c-2.9-0.3-6.8,0.9-7.4,4.1c-0.7,3.7,2.9,5.8,5.5,7.4
					c-0.2-0.7-0.4-1.4-0.5-2.1c-1.1,2.2-2.2,4.5-3.1,6.8c-0.3,0.7,0.3,1.7,1,1.8c3.8,0.8,7,2.9,10.6,4.2c0.7,0.3,1.7-0.3,1.8-1
					c0.4-1.7,0.9-5.6,2.1-6.3c0.4-0.2,2.2-0.1,2.8-0.3c0.9-0.3,1.8-0.6,2.5-1.3c1.9-1.6,2-3.1,0.4-4.8c-2.6-2.7-6.3-4.8-9.9-5.4
					c-2.6-0.4-8.6-2.1-10.7,0.4c-0.5,0.6-0.5,1.2-0.2,1.8c0.6,1.2,2,2.3,3,3.2c0.2,0.2,2.5,1.6,2.4,1.4c0.4-0.8,0.9-1.5,1.3-2.3
					c-0.2,0-0.4,0-0.5,0c-0.6-0.1-1.3,0.5-1.4,1.1c-0.5,2.3-1.2,4.6-2,6.8c-0.3,0.7,0.3,1.7,1,1.8c2.1,0.3,3.8,0.9,5.6,2
					c0.8,0.5,2,0.1,2.2-0.9c0.2-1.1,0.4-4.1,1.2-4.9c0.8-0.8,4.6-1.1,5.7-1.4c1.3-0.3,1.4-2.1,0.4-2.7c-4.2-2.7-8.7-4.3-13.6-5.1
					c-1.6-0.3-2.7,1.8-1.2,2.7c4.7,2.9,0.6,3.7,1.2,7.7c0.2,1.3,0.8,1.6,2,2.2c0.7,0.3,1.7,0.2,2.1-0.5c1-2.2,1.1-4.5,2.3-6.7
					c-0.6,0.2-1.1,0.5-1.7,0.7c1,0.4,2.1,0.8,3.1,1.2c0-1,0-1.9,0-2.9c-0.8,0.2-1.7,0.4-2.5,0.6c-1.9,0.4-1.1,3.3,0.8,2.9
					c0.8-0.2,1.7-0.4,2.5-0.6c1.6-0.3,1.3-2.4,0-2.9c-1-0.4-2.1-0.8-3.1-1.2c-0.6-0.2-1.4,0.2-1.7,0.7c-1.2,2.2-1.3,4.5-2.3,6.7
					c0.7-0.2,1.4-0.4,2.1-0.5c-0.5-0.3,1.2-4.9,0.9-5.9c-0.5-1.8-2.6-3.1-4.1-3.9c-0.4,0.9-0.8,1.8-1.2,2.7
					c4.6,0.8,8.9,2.2,12.9,4.8c0.1-0.9,0.2-1.8,0.4-2.7c-2,0.5-5.4,0.5-7,2c-1.5,1.4-1.7,4.6-2.1,6.4c0.7-0.3,1.5-0.6,2.2-0.9
					c-2-1.2-4-2-6.4-2.3c0.3,0.6,0.7,1.2,1,1.8c0.8-2.2,1.5-4.5,2-6.8c-0.5,0.4-1,0.7-1.4,1.1c0.2,0,0.4,0,0.5,0
					c1.2,0.1,1.8-1.3,1.3-2.3c-1.1-1.9-4.3-2.4-5.3-4.6c-0.1,0.6-0.2,1.2-0.2,1.8c1.3-1.5,10.5,1,11.6,1.6c1.2,0.6,3.5,1.9,4.2,2.9
					c1.7,1,1.3,1.5-1.1,1.5c-0.6,0.2-1.3,0.3-2,0.4c-4.3,0.8-4.2,4.3-5.1,8.3c0.6-0.3,1.2-0.7,1.8-1c-3.6-1.4-6.8-3.4-10.6-4.2
					c0.3,0.6,0.7,1.2,1,1.8c0.8-2.1,1.8-4.1,2.8-6c0.4-0.7,0.2-1.6-0.5-2.1c-0.5-0.3-1.6-0.7-1.9-1.2c-0.2-1.5-0.5-2.9-0.7-4.4
					c0.7-0.2,1.4-0.3,2.2-0.5c2.2-0.1,5.3,0.8,7.4,1.4c1.9,0.5,8,3.6,7.9,6.2C63.8,38.9,66.8,38.9,66.9,36.9L66.9,36.9z"/>
			</g>
		</g>
	</g>
	<g id="line_1_" class="st1">
		<path class="st2" d="M42.9,44c-3.7-1.3-8.8-1-11.5,2.1c-1.2,1.3-1.7,3.3-1.1,5c1.5,4,5.5,6.6,9.1,8.6c1.2,0.6,2.4,1.3,3.6,1.8
			c2.4,1,5,1.7,7.6,2c1.8,0.3,3.7,0.5,5.6,0.5c1.7,0,3.6,0,5.1-0.8c0.9-0.5,1.6-1.1,2.3-1.8c1.1-1.3,2-3.1,1.6-4.9
			c-0.5-1.8-1.6-3.4-3.1-4.6c-1.4-1.2-3-1.8-4.6-2.7"/>
		<path class="st2" d="M59.2,41.3c-0.1,0.5-0.2,1.1-0.3,1.6c-0.6,2.8-1.7,6-2.3,8.8c-0.9,0.5-1.4,0.4-2.5,0.4
			c-2.4,0-4.7-0.7-6.9-1.7c-2-1-4-2.5-4.5-4.7c0.8-2.3,1.8-4.6,2.8-6.8c0.2-0.4,0.4-0.9,0.6-1.3"/>
		<path class="st2" d="M41.7,32.2c-0.1-1.2,0.2-2.4,0.8-3.4c0.6-1,1.7-1.5,2.8-1.8c2.3-0.6,4.9-0.7,7.2-0.2c4,0.8,8.2,2.1,11.3,4.8
			c1.5,1.3,2.8,3.1,2.9,5.1c0,0.5,0,1-0.2,1.5c-0.6,2.1-3,2.9-4.9,3.3c-1.3,0.3-2.7,0.3-4,0.2c-1.6-0.1-3.1-0.6-4.5-1.1
			c-2.6-0.9-5.1-1.9-7.5-3.4c-1.3-0.8-2.7-1.9-3.4-3.3C42,33.4,41.8,32.8,41.7,32.2z"/>
		<g>
			<polygon points="46.7,62.9 44.5,68.1 42,67.3 43.2,61.8 			"/>
		</g>
	</g>
</g>
<g id="pin_x5F_1">
	<g id="color" class="st0">
		<g class="st1">
			<path d="M41.6,47c-1.2-1-2.9-1.1-4.4-0.9c-1.1,0.1-2.2,0.3-3.2,0.8c-1,0.5-1.8,1.3-2.2,2.3c-0.4,1.2-0.1,2.4,0.4,3.6
				c1.2,3.1,3.4,5.9,6.2,7.8c0.9,0.6,1.9,1.2,2.9,1.7c2.1,1.1,4.1,2.2,6.3,3c1.7,0.6,3.5,1,5.2,1.5c1.8,0.4,3.9,0.8,5.5-0.2
				c1.4-0.9,2-2.9,1.7-4.6c-0.3-1.7-1.2-3.2-2.3-4.6c-0.4-0.5-0.8-1-1.3-1.5c-0.5-0.5-1.1-0.8-1.7-1.2c-1.1-0.7-2.2-1.3-3.2-2
				c-2.8-1.7-5.7-3.5-8.8-4.5c0,0,7.7-12.4,9.4-14.7L41.9,47.3L41.6,47z"/>
			<g>
				<path d="M42.3,45.7C37.5,43,29,45.2,30.4,52c1.8,8.3,11.3,13.1,18.6,15.3c5.4,1.6,14.6,2.2,12.5-6.3
					c-1.9-7.4-11.8-11.8-18.2-14.2c0.3,0.7,0.6,1.5,0.9,2.2c3.1-4.9,6.1-10,9.4-14.7c1.1-1.6-1.5-3-2.6-1.5
					c-3.5,4.6-6.9,9.2-10.4,13.8c0.8-0.1,1.6-0.2,2.4-0.3c-0.1-0.1-0.2-0.2-0.3-0.3c-1.4-1.3-3.5,0.8-2.1,2.1
					c0.1,0.1,0.2,0.2,0.3,0.3c0.8,0.7,1.8,0.5,2.4-0.3c3.5-4.6,6.9-9.2,10.4-13.8c-0.9-0.5-1.7-1-2.6-1.5c-3.3,4.8-6.3,9.8-9.4,14.7
					c-0.5,0.9,0,1.9,0.9,2.2c4.1,1.5,8.1,3.8,11.7,6.3c1.4,1,2.9,2.1,3.6,3.8c2.7,6.7-2.9,5.9-6.1,5.1c-4.3-1.1-8.8-3.1-12.4-5.6
					c-1.7-1.2-3.3-2.8-4.4-4.7c-0.7-1.1-1.2-2.2-1.5-3.4c1.3-3.7,3.8-4.7,7.5-2.9C42.5,49.2,44,46.6,42.3,45.7z"/>
			</g>
		</g>
		<g class="st1">
			<path d="M53.9,35.2c-1.7,1.3-3,3-3.9,5c-0.5,1.2-0.9,2.4-1.5,3.6c-0.7,1.5-1.8,2.8-2.8,4c0.7,0.3,10.2,6.2,10.2,6.2
				c1.2-1.3,2.2-2.8,3.1-4.3c0.6-1,1.1-2,1.6-3c1.1-2.2,2.3-4.4,3.4-6.6c-1.7-0.8-3.6-1.3-5.4-2C57,37.5,55.2,36.6,53.9,35.2z"/>
			<g>
				<path d="M52.9,34.1c-4,3.5-5,8.5-8.2,12.6c-0.6,0.7-0.6,1.9,0.3,2.4c3.5,1.8,6.8,4.1,10.2,6.2c0.5,0.3,1.4,0.3,1.8-0.2
					c3.5-4.3,5.9-9.3,8.4-14.2c0.3-0.7,0.2-1.7-0.5-2.1c-3.3-1.5-7.2-2.1-9.9-4.7c-1.4-1.3-3.5,0.8-2.1,2.1c3,2.9,6.8,3.5,10.5,5.2
					c-0.2-0.7-0.4-1.4-0.5-2.1c-2.4,4.6-4.6,9.5-8,13.6c0.6-0.1,1.2-0.2,1.8-0.2c-3.4-2.1-6.7-4.3-10.2-6.2c0.1,0.8,0.2,1.6,0.3,2.4
					c3.2-4,4.3-9.2,8.2-12.6C56.4,35,54.3,32.8,52.9,34.1z"/>
			</g>
		</g>
		<g class="st1">
			<path d="M70.8,32.7c-0.9-2-2.5-3.7-4.1-5.1c-0.4-0.4-0.8-0.7-1.3-1c-0.6-0.4-1.3-0.6-2-0.9c-1.8-0.7-3.6-1.4-5.5-1.4
				c-1.8-0.1-3.7,0.5-5.1,1.6c-0.3,0.2-0.6,0.5-0.8,0.8c-0.4,0.7-0.3,1.5,0,2.2c0.4,0.7,0.9,1.2,1.5,1.8c0.2,0.2,0.4,0.4,0.6,0.5
				c-0.6,0.7,0,0,0,0c1.2,1.1,2.3,2.2,3.5,3.3c0.5,0.5,1.1,1,1.7,1.4c0.6,0.4,1.3,0.8,2.1,1.1c1,0.4,2.1,0.9,3.2,0.9
				c1.4,0.1,2.8-0.3,4.1-0.8c0.3-0.1,1.9-0.7,2.2-1.1c0.2-0.2,0.3-0.4,0.4-0.6C71.2,35.5,70.9,32.9,70.8,32.7z"/>
			<g>
				<path d="M72.1,31.9c-2.9-5.4-9-9.6-15.4-9.1c-2,0.2-5.1,1.2-6.1,3.1c-1.4,2.5,0.6,4.8,2.4,6.4c0-0.7,0-1.4,0-2.1
					c-0.1,0.1-0.2,0.2-0.3,0.3c-1.2,1.5,0.9,3.6,2.1,2.1c0.1-0.1,0.2-0.2,0.3-0.3c-0.7,0-1.4,0-2.1,0c4.4,4.2,8.8,8.6,15.4,6.6
					c3.8-1.2,4.8-2.7,4-6.6c-0.4-1.9-3.3-1.1-2.9,0.8c0.1,0.4,0.5,1.8,0.3,2.2c-0.2,0.4-3.9,0.9-4.4,0.9c-4.4,0.2-7.3-3.3-10.2-6.1
					c-0.5-0.5-1.6-0.7-2.1,0c-0.1,0.1-0.2,0.2-0.3,0.3c0.7,0.7,1.4,1.4,2.1,2.1c0.1-0.1,0.2-0.2,0.3-0.3c0.5-0.6,0.6-1.5,0-2.1
					c-2.9-2.8,0.2-4.5,2.8-4.4c1.7,0,3.6,0.7,5.1,1.4c2.9,1.2,5.1,3.5,6.6,6.3C70.4,35.2,73,33.6,72.1,31.9z"/>
			</g>
		</g>
	</g>
	<g id="line">
		<path d="M56.8,68.9c-6.1,0.8-12.2-2.1-16.5-4.9c-3.2-2.1-5.8-3.9-7.9-6.4c-1.3-1.5-2.2-3.1-2.6-4.7c-0.5-1.9-0.3-3.8,0.6-5.4
			c1-1.7,2.8-3,5-3.5c1.7-0.4,3.7-0.3,6,0.3c0.2,0.1,0.4,0.1,0.6,0.2l0.2,0.1l-0.4,0.9c0,0-0.5-0.2-0.6-0.2c-2.1-0.5-4-0.6-5.5-0.3
			c-1.9,0.4-3.5,1.5-4.3,3c-0.7,1.3-0.9,3-0.5,4.6c0.4,1.4,1.2,2.8,2.4,4.3c2.2,2.6,5.1,4.5,7.7,6.2c4.6,3,11.4,6.2,17.7,4.4
			c1.5-0.4,2.6-2.3,2.9-4c0.1-0.7,0-1.5-0.3-2.5c-0.6-1.8-1.5-3.5-2.7-4.9c-0.1-0.1-0.3-0.3-0.5-0.5c-0.1-0.1-0.1-0.1-0.2-0.2
			l-0.3-0.3c0,0,0.7-0.6,0.7-0.6l0.2,0.1c0.1,0.1,0.2,0.2,0.3,0.3c0.2,0.2,0.4,0.4,0.5,0.6c1.3,1.5,2.3,3.3,2.9,5.2
			c0.2,0.8,0.5,1.9,0.4,3c-0.3,1.9-1.6,4.2-3.6,4.8C58.1,68.7,57.4,68.8,56.8,68.9z M58.3,54.7L58.3,54.7
			C58.3,54.7,58.3,54.7,58.3,54.7z"/>
		<path d="M53.3,57.7c-1.9,0.3-4.1-0.1-6.1-1c-2.1-0.9-3.9-2.3-5-4c-1.3-1.9-1.8-4.3-1.3-6.3c0.1-0.2,0.1-0.4,0.2-0.6l0.1-0.1
			c0.1-0.1,0.2-0.3,0.3-0.4c0.1-0.1,0.2-0.2,0.2-0.3l0.8,0.5c-0.1,0.2-0.2,0.3-0.4,0.4c0,0-0.1,0.1-0.1,0.2L42,46.4
			c0,0-0.1,0.2-0.1,0.2c-0.5,1.9,0,3.9,1.1,5.6c1,1.5,2.6,2.8,4.6,3.6c2.5,1.1,5.2,1.3,7.3,0.4c0.4-0.1,0.7-0.3,1-0.5
			c0.3-0.2,0.6-0.4,0.8-0.8l0.8,0.6c-0.3,0.4-0.6,0.7-1.1,1c-0.4,0.2-0.8,0.4-1.2,0.6C54.7,57.5,54,57.6,53.3,57.7z"/>
		<path d="M42.5,45.8l-0.8-0.6c3.1-4.1,6.1-8.4,9-12.6l0.8,0.6C48.7,37.4,42.5,45.8,42.5,45.8z"/>
		<path d="M57.4,55.8l-0.9-0.4c0.1-0.3,0.7-1,0.8-1.1c3.1-4.7,5.7-9.7,7.6-15l0.9,0.3c-2,5.3-4.6,10.5-7.8,15.2
			c-0.1,0.1-0.2,0.3-0.3,0.4C57.6,55.4,57.5,55.6,57.4,55.8z"/>
		<path d="M67.8,39.6c-2.9,0.4-5.8-0.1-8.4-1.4c-0.9-0.4-1.7-1-2.8-1.7c-1.8-1.3-3.5-2.8-5.1-4.4c-1.3-1.4-1.9-3.6-1.4-5.4
			c1-3.6,5.2-4.8,8.9-4.1c2.7,0.5,9.4,2.3,12.6,7.8l0,0c0.3,0.5,0.6,1.1,0.8,1.7c0.8,2,0.9,4.9-1.2,6.4c-0.7,0.5-1.4,0.7-2,0.8
			C68.8,39.4,68.3,39.5,67.8,39.6z M55.8,23.5c-2.2,0.3-4.2,1.4-4.7,3.5c-0.4,1.5,0.1,3.3,1.1,4.4c1.5,1.6,3.2,3,5,4.3
			c1,0.7,1.8,1.2,2.6,1.6c2.8,1.4,6.1,1.7,9.1,1c0.5-0.1,1.2-0.3,1.7-0.7c1.7-1.2,1.5-3.6,0.9-5.2c-0.2-0.5-0.5-1-0.7-1.5l0,0
			c-3-5.2-9.4-6.8-11.9-7.3C57.9,23.4,56.8,23.4,55.8,23.5z"/>
		<g>
			<polygon points="42.7,65.2 37.1,71.9 35.3,70.7 39.2,63 			"/>
		</g>
	</g>
</g>
</svg>
