<?xml version="1.0" encoding="utf-8"?>
<!-- Generator: Adobe Illustrator 22.0.1, SVG Export Plug-In . SVG Version: 6.00 Build 0)  -->
<svg version="1.1" xmlns="http://www.w3.org/2000/svg" xmlns:xlink="http://www.w3.org/1999/xlink" x="0px" y="0px"
	 viewBox="0 0 192 320" style="enable-background:new 0 0 192 320;" xml:space="preserve">
<style type="text/css">
	.st0{display:none;}
	.st1{display:inline;fill:none;stroke:#000000;stroke-miterlimit:10;}
	.st2{display:inline;fill:#FFFFFF;stroke:#000000;stroke-miterlimit:10;}
	.st3{fill:#D3C4B3;stroke:#FFFFFF;stroke-miterlimit:10;}
</style>
<g id="레이어_2">
	<g>
		<path class="st3" d="M0,0v320h192V0H0z M186.5,316.8c-4,0-8.1-0.2-12.1-0.2c-11.5,0-23-0.6-34.5-0.9c-20.7-0.5-41.4-0.2-62.1-0.2
			c-24.3,0-48.4,0.6-72.8,0.6c0,0,0.1-10.2,0.1-14.9c0.1-5.7,0-11.4,0-17c0-10.5,0.4-20.2,0.5-30.3c0.1-5.4,0-11.1,0-16.6
			c0,0.5,0,0.6-0.1,0.4c0-2.4-0.1-3.8-0.2-6.1c-0.2-5.6-0.2-10.2-0.2-16.1c0-22.2,0.2-44.2,0.2-66.4c0-16.8-0.4-32-0.6-48.5
			C4.5,78.9,4.1,57.8,4.1,36.1c0-10.2,0-20.4,0-30.5c0,0,29.7,0.9,44.7,0.8c4.4,0,8.8,0,13.2-0.1c19.7-0.4,39.3-1.1,59-1.1
			c9.8,0,19.7,0.1,29.5,0.4c12,0.4,36,0.4,36,0.4l-2,210.2c-0.2,23.6,0,47.1,0.7,70.7c0.2,5.4,0.1,11.3,0.3,16.6
			c0.2,5.5,1.3,13.2,1.3,13.2C186.7,316.8,186.6,316.8,186.5,316.8z"/>
	</g>
</g>
</svg>
